<?xml version="1.0" standalone="no"?>
<!DOCTYPE svg PUBLIC "-//W3C//DTD SVG 20010904//EN"
 "http://www.w3.org/TR/2001/REC-SVG-20010904/DTD/svg10.dtd">
<svg version="1.0" xmlns="http://www.w3.org/2000/svg"
 width="666.000000pt" height="375.000000pt" viewBox="0 0 666.000000 375.000000"
 preserveAspectRatio="xMidYMid meet">

<g transform="translate(0.000000,375.000000) scale(0.100000,-0.100000)"
fill="#000000" stroke="none">
<path d="M3208 1966 c-21 -57 -38 -109 -38 -115 0 -6 10 -11 23 -11 16 0 26 9
34 30 10 26 16 30 51 30 35 0 41 -4 52 -30 8 -19 20 -30 32 -30 21 0 21 -1 -9
95 -39 123 -46 135 -78 135 -29 0 -31 -3 -67 -104z m102 -23 c0 -13 -51 -19
-62 -8 -3 3 2 26 11 51 l16 45 17 -38 c10 -21 18 -44 18 -50z"/>
<path d="M3418 1943 c-3 -124 -4 -128 -25 -131 -15 -2 -23 -10 -23 -23 0 -30
53 -26 79 7 19 24 21 40 21 150 l0 124 -25 0 -24 0 -3 -127z"/>
<path d="M3458 1690 c-2 -48 0 -60 12 -60 12 0 14 12 12 60 -2 33 -7 60 -12
60 -5 0 -10 -27 -12 -60z"/>
<path d="M3086 1732 c-4 -7 2 -28 14 -46 21 -34 14 -55 -12 -40 -10 5 -10 4
-2 -5 6 -6 18 -9 27 -5 19 7 23 49 6 59 -6 4 -14 16 -18 28 -5 14 -10 17 -15
9z"/>
<path d="M3158 1685 c-2 -39 1 -55 10 -55 8 0 12 18 12 55 0 71 -17 71 -22 0z"/>
<path d="M3204 1715 c-1 -16 3 -24 10 -22 14 5 15 39 1 44 -5 1 -11 -8 -11
-22z"/>
<path d="M3252 1728 c-7 -7 -12 -26 -12 -43 0 -34 15 -55 41 -55 19 0 37 43
31 78 -6 39 -22 23 -22 -23 0 -26 -5 -45 -11 -45 -7 0 -10 18 -7 50 3 52 0 58
-20 38z"/>
<path d="M3340 1685 c0 -42 3 -55 15 -55 12 0 15 13 15 55 0 42 -3 55 -15 55
-12 0 -15 -13 -15 -55z"/>
<path d="M3387 1708 c-5 -39 10 -78 31 -78 12 0 12 3 2 15 -7 9 -13 34 -12 55
2 48 -14 53 -21 8z"/>
<path d="M3530 1717 c0 -14 5 -29 11 -32 6 -4 14 -17 19 -29 7 -18 9 -19 15
-5 4 10 -4 32 -19 54 -25 36 -26 37 -26 12z"/>
<path d="M3520 1656 c0 -8 7 -17 16 -20 13 -5 14 -4 6 7 -7 8 -9 17 -5 20 3 4
1 7 -5 7 -7 0 -12 -6 -12 -14z"/>
</g>
</svg>
